<mxfile host="ac.draw.io" modified="2022-11-01T11:16:20.159Z" agent="5.0 (Macintosh; Intel Mac OS X 10_15_7) AppleWebKit/537.36 (KHTML, like Gecko) Chrome/105.0.0.0 Safari/537.36" etag="npmMeoN_B-iGm-wl_saN" version="20.5.1" type="embed"><diagram id="NPV9XIiz1MjmOxE2LqMc" name="Page-1"><mxGraphModel dx="2125" dy="733" grid="1" gridSize="10" guides="1" tooltips="1" connect="1" arrows="1" fold="1" page="1" pageScale="1" pageWidth="827" pageHeight="1169" math="0" shadow="0"><root><mxCell id="0"/><mxCell id="1" parent="0"/><mxCell id="rBCvLy7UfVeuBxNaxcZY-1" value="" style="ellipse;html=1;shape=startState;fillColor=#000000;strokeColor=#ff0000;" parent="1" vertex="1"><mxGeometry x="-520" y="98.5" width="30" height="30" as="geometry"/></mxCell><mxCell id="rBCvLy7UfVeuBxNaxcZY-2" value="" style="edgeStyle=orthogonalEdgeStyle;html=1;verticalAlign=bottom;endArrow=open;endSize=8;strokeColor=#ff0000;rounded=1;exitX=1;exitY=0.5;exitDx=0;exitDy=0;entryX=0;entryY=0.5;entryDx=0;entryDy=0;entryPerimeter=0;" parent="1" source="rBCvLy7UfVeuBxNaxcZY-1" target="rBCvLy7UfVeuBxNaxcZY-4" edge="1"><mxGeometry relative="1" as="geometry"><mxPoint x="-505" y="188.5" as="targetPoint"/></mxGeometry></mxCell><mxCell id="rBCvLy7UfVeuBxNaxcZY-3" style="edgeStyle=orthogonalEdgeStyle;rounded=1;orthogonalLoop=1;jettySize=auto;html=1;exitX=1;exitY=0.5;exitDx=0;exitDy=0;exitPerimeter=0;entryX=0;entryY=0.5;entryDx=0;entryDy=0;startArrow=none;startFill=0;" parent="1" source="rBCvLy7UfVeuBxNaxcZY-4" target="rBCvLy7UfVeuBxNaxcZY-7" edge="1"><mxGeometry relative="1" as="geometry"/></mxCell><mxCell id="rBCvLy7UfVeuBxNaxcZY-4" value="every 100 seconds" style="points=[[0.25,0,0],[0.5,0,0],[0.75,0,0],[1,0.25,0],[1,0.5,0],[1,0.75,0],[0.75,1,0],[0.5,1,0],[0.25,1,0],[0,0.75,0],[0,0.5,0],[0,0.25,0]];shape=mxgraph.bpmn.task;whiteSpace=wrap;rectStyle=rounded;size=10;taskMarker=abstract;isLoopStandard=1;" parent="1" vertex="1"><mxGeometry x="-390" y="90.5" width="120" height="45" as="geometry"/></mxCell><mxCell id="rBCvLy7UfVeuBxNaxcZY-5" style="edgeStyle=orthogonalEdgeStyle;rounded=1;orthogonalLoop=1;jettySize=auto;html=1;exitX=1;exitY=0.5;exitDx=0;exitDy=0;entryX=0;entryY=0.5;entryDx=0;entryDy=0;startArrow=none;startFill=0;" parent="1" source="rBCvLy7UfVeuBxNaxcZY-7" target="rBCvLy7UfVeuBxNaxcZY-13" edge="1"><mxGeometry relative="1" as="geometry"/></mxCell><mxCell id="rBCvLy7UfVeuBxNaxcZY-6" style="edgeStyle=orthogonalEdgeStyle;rounded=1;orthogonalLoop=1;jettySize=auto;html=1;startArrow=none;startFill=0;dashed=1;entryX=0.5;entryY=1;entryDx=0;entryDy=0;exitX=0.5;exitY=0;exitDx=0;exitDy=0;exitPerimeter=0;" parent="1" source="rBCvLy7UfVeuBxNaxcZY-22" target="rBCvLy7UfVeuBxNaxcZY-7" edge="1"><mxGeometry relative="1" as="geometry"/></mxCell><mxCell id="rBCvLy7UfVeuBxNaxcZY-7" value="Extract Broadcast Batch&lt;br&gt;&lt;b&gt;criteria&lt;/b&gt;: status (=Scheduled), createdAt,&lt;br&gt;sendDate&lt;br&gt;&lt;b&gt;limit&lt;/b&gt;: 10" style="rounded=1;whiteSpace=wrap;html=1;" parent="1" vertex="1"><mxGeometry x="-240" y="80" width="220" height="65" as="geometry"/></mxCell><mxCell id="rBCvLy7UfVeuBxNaxcZY-8" style="edgeStyle=orthogonalEdgeStyle;rounded=1;orthogonalLoop=1;jettySize=auto;html=1;exitX=0.5;exitY=1;exitDx=0;exitDy=0;entryX=0.5;entryY=0;entryDx=0;entryDy=0;labelBackgroundColor=none;fontSize=18;fontColor=#FF2D0D;startArrow=none;startFill=0;" parent="1" source="rBCvLy7UfVeuBxNaxcZY-9" target="rBCvLy7UfVeuBxNaxcZY-16" edge="1"><mxGeometry relative="1" as="geometry"/></mxCell><mxCell id="rBCvLy7UfVeuBxNaxcZY-9" value="Extract Broadcast&lt;br&gt;&lt;b&gt;criteria&lt;/b&gt;: status (=Running?), createdAt, sendDate&lt;br&gt;&lt;b&gt;limit&lt;/b&gt;: 10" style="rounded=1;whiteSpace=wrap;html=1;" parent="1" vertex="1"><mxGeometry x="205" y="82.5" width="170" height="60" as="geometry"/></mxCell><mxCell id="rBCvLy7UfVeuBxNaxcZY-10" style="edgeStyle=orthogonalEdgeStyle;rounded=1;orthogonalLoop=1;jettySize=auto;html=1;exitX=0.5;exitY=1;exitDx=0;exitDy=0;startArrow=none;startFill=0;dashed=1;entryX=0.75;entryY=0;entryDx=0;entryDy=0;entryPerimeter=0;" parent="1" source="rBCvLy7UfVeuBxNaxcZY-13" target="rBCvLy7UfVeuBxNaxcZY-22" edge="1"><mxGeometry relative="1" as="geometry"/></mxCell><mxCell id="rBCvLy7UfVeuBxNaxcZY-11" style="edgeStyle=orthogonalEdgeStyle;rounded=1;orthogonalLoop=1;jettySize=auto;html=1;exitX=1;exitY=0.5;exitDx=0;exitDy=0;entryX=0;entryY=0.5;entryDx=0;entryDy=0;startArrow=none;startFill=0;" parent="1" source="rBCvLy7UfVeuBxNaxcZY-13" target="rBCvLy7UfVeuBxNaxcZY-9" edge="1"><mxGeometry relative="1" as="geometry"/></mxCell><mxCell id="rBCvLy7UfVeuBxNaxcZY-13" value="Update status&lt;br&gt;&lt;b&gt;status&lt;/b&gt;: Running?" style="rounded=1;whiteSpace=wrap;html=1;" parent="1" vertex="1"><mxGeometry x="20" y="90" width="140" height="45" as="geometry"/></mxCell><mxCell id="rBCvLy7UfVeuBxNaxcZY-14" value="For each select contacts from lists and create messages" style="rounded=1;whiteSpace=wrap;html=1;" parent="1" vertex="1"><mxGeometry x="30" y="276" width="120" height="45" as="geometry"/></mxCell><mxCell id="rBCvLy7UfVeuBxNaxcZY-15" style="edgeStyle=orthogonalEdgeStyle;rounded=1;orthogonalLoop=1;jettySize=auto;html=1;exitX=0;exitY=0.5;exitDx=0;exitDy=0;entryX=1;entryY=0.5;entryDx=0;entryDy=0;labelBackgroundColor=none;fontSize=12;fontColor=#FF2D0D;startArrow=none;startFill=0;" parent="1" source="rBCvLy7UfVeuBxNaxcZY-16" target="rBCvLy7UfVeuBxNaxcZY-19" edge="1"><mxGeometry relative="1" as="geometry"/></mxCell><mxCell id="rBCvLy7UfVeuBxNaxcZY-16" value="Count contacts amount to identify finish point" style="rounded=1;whiteSpace=wrap;html=1;labelBackgroundColor=none;fontSize=12;" parent="1" vertex="1"><mxGeometry x="230" y="193" width="120" height="40" as="geometry"/></mxCell><mxCell id="rBCvLy7UfVeuBxNaxcZY-17" style="edgeStyle=orthogonalEdgeStyle;rounded=1;orthogonalLoop=1;jettySize=auto;html=1;exitX=0;exitY=0.5;exitDx=0;exitDy=0;labelBackgroundColor=none;fontSize=12;fontColor=#FF2D0D;startArrow=none;startFill=0;dashed=1;entryX=1;entryY=0.5;entryDx=0;entryDy=0;entryPerimeter=0;" parent="1" source="rBCvLy7UfVeuBxNaxcZY-19" target="rBCvLy7UfVeuBxNaxcZY-22" edge="1"><mxGeometry relative="1" as="geometry"><mxPoint x="-106" y="213.0999999999999" as="targetPoint"/></mxGeometry></mxCell><mxCell id="rBCvLy7UfVeuBxNaxcZY-18" style="edgeStyle=orthogonalEdgeStyle;rounded=1;orthogonalLoop=1;jettySize=auto;html=1;exitX=0.5;exitY=1;exitDx=0;exitDy=0;labelBackgroundColor=none;fontSize=12;fontColor=#FF2D0D;startArrow=none;startFill=0;" parent="1" source="rBCvLy7UfVeuBxNaxcZY-19" target="rBCvLy7UfVeuBxNaxcZY-14" edge="1"><mxGeometry relative="1" as="geometry"/></mxCell><mxCell id="rBCvLy7UfVeuBxNaxcZY-19" value="Save processing metadata" style="rounded=1;whiteSpace=wrap;html=1;labelBackgroundColor=none;fontSize=12;" parent="1" vertex="1"><mxGeometry x="20" y="195.25" width="140" height="35.5" as="geometry"/></mxCell><mxCell id="rBCvLy7UfVeuBxNaxcZY-20" style="edgeStyle=orthogonalEdgeStyle;rounded=1;orthogonalLoop=1;jettySize=auto;html=1;exitX=0;exitY=0.5;exitDx=0;exitDy=0;entryX=0.5;entryY=1;entryDx=0;entryDy=0;entryPerimeter=0;labelBackgroundColor=none;fontSize=12;fontColor=#FF2908;startArrow=none;startFill=0;" parent="1" source="rBCvLy7UfVeuBxNaxcZY-14" target="rBCvLy7UfVeuBxNaxcZY-4" edge="1"><mxGeometry relative="1" as="geometry"><mxPoint x="-187.5" y="298.5" as="sourcePoint"/></mxGeometry></mxCell><mxCell id="rBCvLy7UfVeuBxNaxcZY-21" style="edgeStyle=orthogonalEdgeStyle;rounded=1;orthogonalLoop=1;jettySize=auto;html=1;exitX=0;exitY=0.5;exitDx=0;exitDy=0;labelBackgroundColor=none;fontSize=12;fontColor=#FF2908;startArrow=none;startFill=0;dashed=1;entryX=0.5;entryY=1;entryDx=0;entryDy=0;entryPerimeter=0;" parent="1" source="rBCvLy7UfVeuBxNaxcZY-14" target="rBCvLy7UfVeuBxNaxcZY-22" edge="1"><mxGeometry relative="1" as="geometry"><mxPoint x="-130" y="276" as="sourcePoint"/></mxGeometry></mxCell><mxCell id="rBCvLy7UfVeuBxNaxcZY-22" value="Database" style="sketch=0;points=[[0,0,0],[0.25,0,0],[0.5,0,0],[0.75,0,0],[1,0,0],[0,1,0],[0.25,1,0],[0.5,1,0],[0.75,1,0],[1,1,0],[0,0.25,0],[0,0.5,0],[0,0.75,0],[1,0.25,0],[1,0.5,0],[1,0.75,0]];outlineConnect=0;fontColor=#232F3E;gradientColor=#4D72F3;gradientDirection=north;fillColor=#3334B9;strokeColor=#ffffff;dashed=0;verticalLabelPosition=middle;verticalAlign=middle;align=right;html=1;fontSize=11;fontStyle=1;aspect=fixed;shape=mxgraph.aws4.resourceIcon;resIcon=mxgraph.aws4.rds;labelBackgroundColor=none;labelBorderColor=none;fontFamily=Helvetica;labelPosition=left;spacing=5;" parent="1" vertex="1"><mxGeometry x="-154" y="189" width="48" height="48" as="geometry"/></mxCell><mxCell id="rBCvLy7UfVeuBxNaxcZY-57" value="&lt;h1&gt;Fair Broadcast Select&lt;/h1&gt;" style="text;html=1;align=center;verticalAlign=middle;resizable=0;points=[];autosize=1;strokeColor=none;fillColor=none;" parent="1" vertex="1"><mxGeometry x="-785" y="85" width="270" height="70" as="geometry"/></mxCell><mxCell id="rBCvLy7UfVeuBxNaxcZY-59" value="" style="sketch=0;html=1;aspect=fixed;strokeColor=none;shadow=0;align=center;verticalAlign=top;fillColor=#3B8DF1;shape=mxgraph.gcp2.arrow_cycle" parent="1" vertex="1"><mxGeometry x="-145.79" y="50" width="31.58" height="30" as="geometry"/></mxCell><mxCell id="rBCvLy7UfVeuBxNaxcZY-60" value="" style="ellipse;html=1;shape=startState;fillColor=#000000;strokeColor=#ff0000;" parent="1" vertex="1"><mxGeometry x="-515" y="498.5" width="30" height="30" as="geometry"/></mxCell><mxCell id="rBCvLy7UfVeuBxNaxcZY-61" value="" style="edgeStyle=orthogonalEdgeStyle;html=1;verticalAlign=bottom;endArrow=open;endSize=8;strokeColor=#ff0000;rounded=1;exitX=1;exitY=0.5;exitDx=0;exitDy=0;entryX=0;entryY=0.5;entryDx=0;entryDy=0;entryPerimeter=0;" parent="1" source="rBCvLy7UfVeuBxNaxcZY-60" target="rBCvLy7UfVeuBxNaxcZY-63" edge="1"><mxGeometry relative="1" as="geometry"><mxPoint x="-500" y="588.5" as="targetPoint"/></mxGeometry></mxCell><mxCell id="rBCvLy7UfVeuBxNaxcZY-62" style="edgeStyle=orthogonalEdgeStyle;rounded=1;orthogonalLoop=1;jettySize=auto;html=1;exitX=1;exitY=0.5;exitDx=0;exitDy=0;exitPerimeter=0;entryX=0;entryY=0.5;entryDx=0;entryDy=0;startArrow=none;startFill=0;" parent="1" source="rBCvLy7UfVeuBxNaxcZY-63" target="rBCvLy7UfVeuBxNaxcZY-66" edge="1"><mxGeometry relative="1" as="geometry"/></mxCell><mxCell id="rBCvLy7UfVeuBxNaxcZY-63" value="every minute" style="points=[[0.25,0,0],[0.5,0,0],[0.75,0,0],[1,0.25,0],[1,0.5,0],[1,0.75,0],[0.75,1,0],[0.5,1,0],[0.25,1,0],[0,0.75,0],[0,0.5,0],[0,0.25,0]];shape=mxgraph.bpmn.task;whiteSpace=wrap;rectStyle=rounded;size=10;taskMarker=abstract;isLoopStandard=1;" parent="1" vertex="1"><mxGeometry x="-385" y="490.5" width="120" height="45" as="geometry"/></mxCell><mxCell id="rBCvLy7UfVeuBxNaxcZY-64" style="edgeStyle=orthogonalEdgeStyle;rounded=1;orthogonalLoop=1;jettySize=auto;html=1;exitX=1;exitY=0.5;exitDx=0;exitDy=0;entryX=0;entryY=0.5;entryDx=0;entryDy=0;startArrow=none;startFill=0;" parent="1" source="rBCvLy7UfVeuBxNaxcZY-66" target="rBCvLy7UfVeuBxNaxcZY-71" edge="1"><mxGeometry relative="1" as="geometry"/></mxCell><mxCell id="rBCvLy7UfVeuBxNaxcZY-65" style="edgeStyle=orthogonalEdgeStyle;rounded=1;orthogonalLoop=1;jettySize=auto;html=1;startArrow=none;startFill=0;dashed=1;entryX=0.5;entryY=1;entryDx=0;entryDy=0;exitX=0.5;exitY=0;exitDx=0;exitDy=0;exitPerimeter=0;" parent="1" source="rBCvLy7UfVeuBxNaxcZY-86" target="rBCvLy7UfVeuBxNaxcZY-66" edge="1"><mxGeometry relative="1" as="geometry"/></mxCell><mxCell id="rBCvLy7UfVeuBxNaxcZY-66" value="Extract Messages&lt;br&gt;&lt;b&gt;criteria&lt;/b&gt;: type,status,timeToSend&lt;br&gt;&lt;b&gt;limit&lt;/b&gt;: 5000" style="rounded=1;whiteSpace=wrap;html=1;" parent="1" vertex="1"><mxGeometry x="-235" y="490" width="220" height="45" as="geometry"/></mxCell><mxCell id="rBCvLy7UfVeuBxNaxcZY-67" style="edgeStyle=orthogonalEdgeStyle;rounded=1;orthogonalLoop=1;jettySize=auto;html=1;exitX=0.5;exitY=1;exitDx=0;exitDy=0;entryX=0.5;entryY=0;entryDx=0;entryDy=0;labelBackgroundColor=none;fontSize=18;fontColor=#FF2D0D;startArrow=none;startFill=0;" parent="1" source="rBCvLy7UfVeuBxNaxcZY-68" target="rBCvLy7UfVeuBxNaxcZY-78" edge="1"><mxGeometry relative="1" as="geometry"/></mxCell><mxCell id="rBCvLy7UfVeuBxNaxcZY-68" value="Select with limits per organization" style="rounded=1;whiteSpace=wrap;html=1;" parent="1" vertex="1"><mxGeometry x="225" y="490" width="140" height="45" as="geometry"/></mxCell><mxCell id="rBCvLy7UfVeuBxNaxcZY-69" style="edgeStyle=orthogonalEdgeStyle;rounded=1;orthogonalLoop=1;jettySize=auto;html=1;exitX=0.5;exitY=1;exitDx=0;exitDy=0;startArrow=none;startFill=0;dashed=1;entryX=0.75;entryY=0;entryDx=0;entryDy=0;entryPerimeter=0;" parent="1" source="rBCvLy7UfVeuBxNaxcZY-71" target="rBCvLy7UfVeuBxNaxcZY-86" edge="1"><mxGeometry relative="1" as="geometry"/></mxCell><mxCell id="rBCvLy7UfVeuBxNaxcZY-70" style="edgeStyle=orthogonalEdgeStyle;rounded=1;orthogonalLoop=1;jettySize=auto;html=1;exitX=1;exitY=0.5;exitDx=0;exitDy=0;entryX=0;entryY=0.5;entryDx=0;entryDy=0;startArrow=none;startFill=0;" parent="1" source="rBCvLy7UfVeuBxNaxcZY-71" target="rBCvLy7UfVeuBxNaxcZY-68" edge="1"><mxGeometry relative="1" as="geometry"/></mxCell><mxCell id="rBCvLy7UfVeuBxNaxcZY-71" value="Update messages&lt;br&gt;&lt;b&gt;status&lt;/b&gt;: Processing" style="rounded=1;whiteSpace=wrap;html=1;" parent="1" vertex="1"><mxGeometry x="25" y="490" width="140" height="45" as="geometry"/></mxCell><mxCell id="rBCvLy7UfVeuBxNaxcZY-72" style="edgeStyle=orthogonalEdgeStyle;rounded=1;jumpStyle=arc;orthogonalLoop=1;jettySize=auto;html=1;exitX=1;exitY=0.5;exitDx=0;exitDy=0;exitPerimeter=0;entryX=0;entryY=0.5;entryDx=0;entryDy=0;startArrow=none;startFill=0;dashed=1;entryPerimeter=0;" parent="1" source="rBCvLy7UfVeuBxNaxcZY-73" target="rBCvLy7UfVeuBxNaxcZY-85" edge="1"><mxGeometry relative="1" as="geometry"><mxPoint x="375" y="698.5" as="targetPoint"/></mxGeometry></mxCell><mxCell id="rBCvLy7UfVeuBxNaxcZY-73" value="send-message-broadcast.FIFO" style="sketch=0;points=[[0,0,0],[0.25,0,0],[0.5,0,0],[0.75,0,0],[1,0,0],[0,1,0],[0.25,1,0],[0.5,1,0],[0.75,1,0],[1,1,0],[0,0.25,0],[0,0.5,0],[0,0.75,0],[1,0.25,0],[1,0.5,0],[1,0.75,0]];outlineConnect=0;fontColor=#232F3E;gradientColor=#FF4F8B;gradientDirection=north;fillColor=#BC1356;strokeColor=#ffffff;dashed=0;verticalLabelPosition=bottom;verticalAlign=top;align=center;html=1;fontSize=13;fontStyle=0;aspect=fixed;shape=mxgraph.aws4.resourceIcon;resIcon=mxgraph.aws4.sqs;labelBorderColor=none;" parent="1" vertex="1"><mxGeometry x="235" y="674.5" width="48" height="48" as="geometry"/></mxCell><mxCell id="rBCvLy7UfVeuBxNaxcZY-74" style="edgeStyle=orthogonalEdgeStyle;rounded=1;jumpStyle=arc;orthogonalLoop=1;jettySize=auto;html=1;exitX=1;exitY=0.5;exitDx=0;exitDy=0;fontSize=12;startArrow=none;startFill=0;dashed=1;" parent="1" source="rBCvLy7UfVeuBxNaxcZY-76" target="rBCvLy7UfVeuBxNaxcZY-73" edge="1"><mxGeometry relative="1" as="geometry"/></mxCell><mxCell id="rBCvLy7UfVeuBxNaxcZY-75" style="edgeStyle=orthogonalEdgeStyle;rounded=1;orthogonalLoop=1;jettySize=auto;html=1;exitX=0.5;exitY=1;exitDx=0;exitDy=0;entryX=0.5;entryY=0;entryDx=0;entryDy=0;labelBackgroundColor=none;fontSize=12;fontColor=#FF2908;startArrow=none;startFill=0;" parent="1" source="rBCvLy7UfVeuBxNaxcZY-76" target="rBCvLy7UfVeuBxNaxcZY-84" edge="1"><mxGeometry relative="1" as="geometry"/></mxCell><mxCell id="rBCvLy7UfVeuBxNaxcZY-76" value="Put UUID into the queue" style="rounded=1;whiteSpace=wrap;html=1;" parent="1" vertex="1"><mxGeometry x="35" y="676" width="120" height="45" as="geometry"/></mxCell><mxCell id="rBCvLy7UfVeuBxNaxcZY-77" style="edgeStyle=orthogonalEdgeStyle;rounded=1;orthogonalLoop=1;jettySize=auto;html=1;exitX=0;exitY=0.5;exitDx=0;exitDy=0;entryX=1;entryY=0.5;entryDx=0;entryDy=0;labelBackgroundColor=none;fontSize=12;fontColor=#FF2D0D;startArrow=none;startFill=0;" parent="1" source="rBCvLy7UfVeuBxNaxcZY-78" target="rBCvLy7UfVeuBxNaxcZY-81" edge="1"><mxGeometry relative="1" as="geometry"/></mxCell><mxCell id="rBCvLy7UfVeuBxNaxcZY-78" value="Validate and charge messages&lt;br&gt;&lt;b&gt;&lt;font color=&quot;#ff2908&quot;&gt;TODO&lt;/font&gt;&lt;/b&gt;" style="rounded=1;whiteSpace=wrap;html=1;labelBackgroundColor=none;fontSize=12;" parent="1" vertex="1"><mxGeometry x="235" y="593" width="120" height="40" as="geometry"/></mxCell><mxCell id="rBCvLy7UfVeuBxNaxcZY-79" style="edgeStyle=orthogonalEdgeStyle;rounded=1;orthogonalLoop=1;jettySize=auto;html=1;exitX=0;exitY=0.5;exitDx=0;exitDy=0;labelBackgroundColor=none;fontSize=12;fontColor=#FF2D0D;startArrow=none;startFill=0;dashed=1;entryX=1;entryY=0.5;entryDx=0;entryDy=0;entryPerimeter=0;" parent="1" source="rBCvLy7UfVeuBxNaxcZY-81" target="rBCvLy7UfVeuBxNaxcZY-86" edge="1"><mxGeometry relative="1" as="geometry"><mxPoint x="-101" y="613.0999999999999" as="targetPoint"/></mxGeometry></mxCell><mxCell id="rBCvLy7UfVeuBxNaxcZY-80" style="edgeStyle=orthogonalEdgeStyle;rounded=1;orthogonalLoop=1;jettySize=auto;html=1;exitX=0.5;exitY=1;exitDx=0;exitDy=0;labelBackgroundColor=none;fontSize=12;fontColor=#FF2D0D;startArrow=none;startFill=0;" parent="1" source="rBCvLy7UfVeuBxNaxcZY-81" target="rBCvLy7UfVeuBxNaxcZY-76" edge="1"><mxGeometry relative="1" as="geometry"/></mxCell><mxCell id="rBCvLy7UfVeuBxNaxcZY-81" value="Update messages&lt;br&gt;&lt;b&gt;status: &lt;/b&gt;Failed" style="rounded=1;whiteSpace=wrap;html=1;labelBackgroundColor=none;fontSize=12;" parent="1" vertex="1"><mxGeometry x="25" y="595.25" width="140" height="35.5" as="geometry"/></mxCell><mxCell id="rBCvLy7UfVeuBxNaxcZY-83" style="edgeStyle=orthogonalEdgeStyle;rounded=1;orthogonalLoop=1;jettySize=auto;html=1;exitX=0;exitY=0.5;exitDx=0;exitDy=0;labelBackgroundColor=none;fontSize=12;fontColor=#FF2908;startArrow=none;startFill=0;dashed=1;entryX=0.75;entryY=1;entryDx=0;entryDy=0;entryPerimeter=0;" parent="1" source="rBCvLy7UfVeuBxNaxcZY-84" target="rBCvLy7UfVeuBxNaxcZY-86" edge="1"><mxGeometry relative="1" as="geometry"><Array as="points"><mxPoint x="-113" y="813"/></Array></mxGeometry></mxCell><mxCell id="rBCvLy7UfVeuBxNaxcZY-89" style="edgeStyle=orthogonalEdgeStyle;rounded=0;orthogonalLoop=1;jettySize=auto;html=1;entryX=0.5;entryY=0;entryDx=0;entryDy=0;" parent="1" source="rBCvLy7UfVeuBxNaxcZY-84" target="rBCvLy7UfVeuBxNaxcZY-88" edge="1"><mxGeometry relative="1" as="geometry"/></mxCell><mxCell id="rBCvLy7UfVeuBxNaxcZY-84" value="Update messages&lt;br&gt;&lt;b&gt;status&lt;/b&gt;: Queued" style="rounded=1;whiteSpace=wrap;html=1;" parent="1" vertex="1"><mxGeometry x="37.5" y="790" width="115" height="45" as="geometry"/></mxCell><UserObject label="&lt;span style=&quot;color: rgb(66, 119, 187); background-color: rgb(255, 255, 255);&quot;&gt;SendMessage Worker &lt;br&gt;(type=Broadcast)&lt;/span&gt;" id="rBCvLy7UfVeuBxNaxcZY-85"><mxCell style="outlineConnect=0;dashed=0;verticalLabelPosition=bottom;verticalAlign=top;align=center;html=1;shape=mxgraph.aws3.android;fillColor=#EE472A;gradientColor=none;aspect=fixed;" parent="1" vertex="1"><mxGeometry x="405" y="675" width="48" height="48" as="geometry"/></mxCell></UserObject><mxCell id="rBCvLy7UfVeuBxNaxcZY-86" value="Database" style="sketch=0;points=[[0,0,0],[0.25,0,0],[0.5,0,0],[0.75,0,0],[1,0,0],[0,1,0],[0.25,1,0],[0.5,1,0],[0.75,1,0],[1,1,0],[0,0.25,0],[0,0.5,0],[0,0.75,0],[1,0.25,0],[1,0.5,0],[1,0.75,0]];outlineConnect=0;fontColor=#232F3E;gradientColor=#4D72F3;gradientDirection=north;fillColor=#3334B9;strokeColor=#ffffff;dashed=0;verticalLabelPosition=middle;verticalAlign=middle;align=right;html=1;fontSize=11;fontStyle=1;aspect=fixed;shape=mxgraph.aws4.resourceIcon;resIcon=mxgraph.aws4.rds;labelBackgroundColor=none;labelBorderColor=none;fontFamily=Helvetica;labelPosition=left;spacing=5;" parent="1" vertex="1"><mxGeometry x="-149" y="589" width="48" height="48" as="geometry"/></mxCell><mxCell id="rBCvLy7UfVeuBxNaxcZY-87" value="&lt;h1&gt;Fair Message Select&lt;/h1&gt;" style="text;html=1;align=center;verticalAlign=middle;resizable=0;points=[];autosize=1;strokeColor=none;fillColor=none;" parent="1" vertex="1"><mxGeometry x="-780" y="477.5" width="250" height="70" as="geometry"/></mxCell><mxCell id="rBCvLy7UfVeuBxNaxcZY-91" style="edgeStyle=orthogonalEdgeStyle;rounded=1;orthogonalLoop=1;jettySize=auto;html=1;exitX=0.5;exitY=1;exitDx=0;exitDy=0;dashed=1;entryX=0.5;entryY=1;entryDx=0;entryDy=0;entryPerimeter=0;" parent="1" source="rBCvLy7UfVeuBxNaxcZY-88" target="rBCvLy7UfVeuBxNaxcZY-86" edge="1"><mxGeometry relative="1" as="geometry"><mxPoint x="-140" y="850" as="targetPoint"/></mxGeometry></mxCell><mxCell id="JIxzikSlC7YK9lex9XI1-2" style="edgeStyle=orthogonalEdgeStyle;rounded=0;orthogonalLoop=1;jettySize=auto;html=1;entryX=0.5;entryY=0;entryDx=0;entryDy=0;" edge="1" parent="1" source="rBCvLy7UfVeuBxNaxcZY-88" target="JIxzikSlC7YK9lex9XI1-1"><mxGeometry relative="1" as="geometry"/></mxCell><mxCell id="rBCvLy7UfVeuBxNaxcZY-88" value="Update last sent metadata for Broadcast" style="rounded=1;whiteSpace=wrap;html=1;" parent="1" vertex="1"><mxGeometry x="37.5" y="880" width="115" height="45" as="geometry"/></mxCell><mxCell id="JIxzikSlC7YK9lex9XI1-5" style="edgeStyle=orthogonalEdgeStyle;rounded=0;orthogonalLoop=1;jettySize=auto;html=1;entryX=0.5;entryY=0;entryDx=0;entryDy=0;dashed=1;" edge="1" parent="1" source="JIxzikSlC7YK9lex9XI1-1" target="JIxzikSlC7YK9lex9XI1-4"><mxGeometry relative="1" as="geometry"/></mxCell><mxCell id="JIxzikSlC7YK9lex9XI1-7" value="YES" style="edgeLabel;html=1;align=center;verticalAlign=middle;resizable=0;points=[];" vertex="1" connectable="0" parent="JIxzikSlC7YK9lex9XI1-5"><mxGeometry x="-0.3358" y="2" relative="1" as="geometry"><mxPoint x="4" y="-2" as="offset"/></mxGeometry></mxCell><mxCell id="JIxzikSlC7YK9lex9XI1-10" value="" style="edgeStyle=orthogonalEdgeStyle;rounded=0;orthogonalLoop=1;jettySize=auto;html=1;exitX=1;exitY=0.5;exitDx=0;exitDy=0;dashed=1;entryX=0.5;entryY=1;entryDx=0;entryDy=0;align=center;" edge="1" parent="1" source="JIxzikSlC7YK9lex9XI1-1" target="rBCvLy7UfVeuBxNaxcZY-60"><mxGeometry relative="1" as="geometry"><mxPoint x="-510" y="600" as="targetPoint"/><Array as="points"><mxPoint x="240" y="1030"/><mxPoint x="240" y="1160"/><mxPoint x="-500" y="1160"/></Array></mxGeometry></mxCell><mxCell id="JIxzikSlC7YK9lex9XI1-11" value="NO" style="edgeLabel;html=1;align=center;verticalAlign=middle;resizable=0;points=[];" vertex="1" connectable="0" parent="JIxzikSlC7YK9lex9XI1-10"><mxGeometry x="-0.0358" y="-2" relative="1" as="geometry"><mxPoint x="515" y="-128" as="offset"/></mxGeometry></mxCell><mxCell id="JIxzikSlC7YK9lex9XI1-1" value="Check if finished&lt;br&gt;(count sent &lt;br&gt;messages)" style="rhombus;whiteSpace=wrap;html=1;" vertex="1" parent="1"><mxGeometry x="25" y="980" width="140" height="100" as="geometry"/></mxCell><mxCell id="JIxzikSlC7YK9lex9XI1-6" style="edgeStyle=orthogonalEdgeStyle;rounded=0;orthogonalLoop=1;jettySize=auto;html=1;entryX=0.25;entryY=1;entryDx=0;entryDy=0;entryPerimeter=0;dashed=1;" edge="1" parent="1" source="JIxzikSlC7YK9lex9XI1-4" target="rBCvLy7UfVeuBxNaxcZY-86"><mxGeometry relative="1" as="geometry"/></mxCell><mxCell id="JIxzikSlC7YK9lex9XI1-8" style="edgeStyle=orthogonalEdgeStyle;rounded=0;orthogonalLoop=1;jettySize=auto;html=1;dashed=1;" edge="1" parent="1" source="JIxzikSlC7YK9lex9XI1-4" target="rBCvLy7UfVeuBxNaxcZY-60"><mxGeometry relative="1" as="geometry"/></mxCell><mxCell id="JIxzikSlC7YK9lex9XI1-4" value="Update broadcast&lt;br&gt;&lt;b&gt;status&lt;/b&gt;: Finished" style="rounded=1;whiteSpace=wrap;html=1;" vertex="1" parent="1"><mxGeometry x="-95" y="1100" width="115" height="45" as="geometry"/></mxCell></root></mxGraphModel></diagram></mxfile>